<svg xmlns="http://www.w3.org/2000/svg" xmlns:xlink="http://www.w3.org/1999/xlink" id="Capa_1" width="612" height="612" x="0" style="enable-background:new 0 0 612 612" y="0" version="1.1" viewBox="0 0 612 612" xml:space="preserve"><g fill="#000"><path d="M535.5,0h-459C34.253,0,0,34.253,0,76.5v459C0,577.747,34.253,612,76.5,612h459c42.247,0,76.5-34.253,76.5-76.5v-459 C612,34.253,577.747,0,535.5,0z M573.75,535.5c0,21.133-17.117,38.25-38.25,38.25h-459c-21.133,0-38.25-17.117-38.25-38.25v-459 c0-21.114,17.117-38.25,38.25-38.25h459c21.133,0,38.25,17.117,38.25,38.25V535.5z M450.126,289.189l-108.19-108.19 c-7.478-7.478-19.584-7.478-27.042,0c-7.479,7.478-7.479,19.584,0,27.043l78.813,78.833H191.25 c-10.557,0-19.125,8.568-19.125,19.125c0,10.557,8.568,19.125,19.125,19.125h202.457l-78.813,78.814 c-7.479,7.478-7.479,19.584,0,27.042c7.478,7.479,19.584,7.479,27.042,0l108.19-108.189c4.59-4.59,6.005-10.863,4.973-16.811 C456.131,300.071,454.697,293.779,450.126,289.189z"/></g></svg>